<?xml version="1.0" standalone="no"?>
<!DOCTYPE svg PUBLIC "-//W3C//DTD SVG 20010904//EN"
 "http://www.w3.org/TR/2001/REC-SVG-20010904/DTD/svg10.dtd">
<svg version="1.0" xmlns="http://www.w3.org/2000/svg"
 width="2170.000000pt" height="912.000000pt" viewBox="0 0 2170.000000 912.000000"
 preserveAspectRatio="xMidYMid meet">

<g transform="translate(0.000000,912.000000) scale(0.100000,-0.100000)"
fill="#000000" stroke="none">
<path d="M13318 8170 c-93 -40 -114 -55 -175 -130 -62 -74 -134 -217 -187
-368 -73 -212 -201 -733 -300 -1233 -25 -123 -77 -377 -115 -564 -39 -187
-100 -492 -136 -678 -146 -757 -334 -1449 -420 -1552 l-25 -30 -25 30 c-61 74
-187 473 -339 1075 -341 1352 -419 1588 -573 1745 -67 69 -182 127 -262 133
-166 12 -316 -95 -420 -298 -69 -134 -100 -214 -212 -558 -149 -451 -179 -514
-268 -555 l-46 -22 -1658 0 -1657 0 0 -207 0 -208 1648 0 c1013 0 1673 4 1714
10 72 11 168 41 233 73 76 37 165 143 232 273 69 136 83 172 228 603 100 296
166 461 186 461 5 0 23 -28 40 -61 71 -141 182 -539 373 -1342 120 -501 312
-1128 406 -1319 82 -170 164 -244 311 -283 132 -35 272 3 362 99 45 48 102
127 126 175 73 142 183 480 271 831 45 180 120 520 136 615 3 22 21 108 40
190 18 83 42 206 54 275 19 114 73 393 194 1000 95 477 218 1002 270 1159 35
106 91 198 118 193 29 -6 86 -133 131 -297 79 -284 106 -388 132 -515 15 -69
39 -179 55 -245 49 -204 158 -752 260 -1305 190 -1024 327 -1557 482 -1880 43
-88 63 -117 127 -181 82 -81 147 -114 244 -126 144 -17 327 100 416 266 83
156 203 541 291 933 84 373 226 920 300 1158 36 115 88 220 108 220 14 0 48
-42 70 -85 21 -42 51 -137 172 -540 120 -397 175 -537 255 -642 81 -109 157
-154 286 -174 61 -9 86 -8 142 5 171 40 269 156 371 439 37 104 169 555 231
792 75 287 171 554 224 625 15 19 22 22 33 12 37 -30 102 -197 192 -492 151
-493 213 -637 326 -751 103 -105 218 -151 425 -169 61 -5 381 -10 713 -10
l602 0 0 210 0 209 -652 3 c-718 4 -707 3 -794 66 -69 50 -114 156 -252 597
-68 218 -155 440 -203 523 -48 81 -163 192 -235 228 -51 25 -70 29 -144 29
-76 0 -91 -4 -148 -33 -81 -42 -131 -88 -187 -173 -61 -91 -112 -204 -173
-379 -45 -132 -75 -235 -218 -745 -73 -261 -132 -434 -165 -481 -33 -48 -40
-52 -63 -28 -52 51 -116 215 -207 529 -144 499 -225 683 -351 801 -119 111
-262 134 -401 66 -157 -78 -274 -277 -386 -657 -89 -303 -102 -357 -246 -970
-130 -553 -206 -810 -258 -870 -39 -45 -55 -41 -90 23 -32 59 -127 343 -174
521 -68 257 -190 807 -234 1056 -107 606 -351 1757 -445 2100 -128 466 -265
711 -450 804 -81 41 -144 41 -236 1z"/>
<path d="M1614 8169 c-6 -11 -2 -3849 5 -4236 l3 -203 209 0 209 0 -2 2205
c-3 2100 -4 2205 -21 2222 -16 16 -40 18 -207 20 -126 2 -191 -1 -196 -8z"/>
<path d="M2633 8173 l-43 -4 0 -2220 0 -2219 209 0 209 0 2 2215 1 2215 -26
10 c-25 9 -259 11 -352 3z"/>
<path d="M3598 8173 l-38 -4 0 -2220 0 -2219 210 0 210 0 0 2208 c0 1340 -4
2213 -10 2222 -7 11 -41 15 -172 16 -90 1 -180 0 -200 -3z"/>
<path d="M4599 8173 l-56 -4 1 -2219 1 -2220 205 0 205 0 -3 2212 c-1 1217 -6
2216 -10 2220 -9 9 -261 18 -343 11z"/>
<path d="M5514 8166 c-2 -6 -3 -1005 -2 -2221 l3 -2210 213 -3 213 -2 -3 2214
c-2 1218 -7 2218 -11 2223 -14 13 -408 12 -413 -1z"/>
<path d="M6500 7975 l0 -200 3118 1 3117 2 12 23 c6 13 34 69 61 124 47 94 90
172 126 228 l16 23 -3225 0 -3225 -1 0 -200z"/>
<path d="M13927 8139 c14 -21 64 -112 112 -201 l86 -163 2953 -3 2952 -2 0
200 0 200 -87 0 c-49 1 -1428 2 -3065 4 l-2977 4 26 -39z"/>
<path d="M6498 6968 l3 -203 2991 2 c1645 2 2993 5 2996 7 2 3 19 71 38 153
18 81 39 169 47 196 l15 47 -3046 0 -3047 0 3 -202z"/>
<path d="M14290 7163 c0 -5 5 -26 10 -48 6 -22 26 -107 44 -188 19 -82 36
-150 38 -153 2 -2 1274 -5 2826 -6 l2822 -3 0 203 0 202 -2870 0 c-1578 0
-2870 -3 -2870 -7z"/>
<path d="M6563 6163 l-63 -4 0 -199 0 -200 1703 0 1702 0 52 178 c29 97 55
189 59 205 l6 27 -1698 -2 c-935 -1 -1727 -3 -1761 -5z"/>
<path d="M11440 6161 c0 -6 27 -92 60 -193 33 -101 60 -188 60 -194 0 -24 708
-35 714 -11 34 120 67 256 76 307 6 36 13 73 16 83 5 16 -22 17 -460 17 -287
0 -466 -4 -466 -9z"/>
<path d="M13235 6133 c-4 -21 -22 -113 -41 -206 -19 -92 -34 -170 -34 -172 0
-3 126 -5 280 -5 230 0 280 2 280 14 0 7 -16 89 -35 182 -19 93 -35 181 -35
197 l0 27 -205 0 -204 0 -6 -37z"/>
<path d="M14506 6133 c3 -21 21 -103 39 -183 19 -80 35 -156 37 -170 l3 -25
353 -3 353 -2 11 32 c6 18 51 111 99 207 49 95 89 175 89 177 0 2 -223 4 -495
4 l-496 0 7 -37z"/>
<path d="M16496 6148 c4 -13 35 -79 69 -148 34 -69 73 -153 85 -188 l23 -63
125 3 126 3 61 180 c34 99 65 192 69 208 l6 27 -285 0 -286 0 7 -22z"/>
<path d="M18822 6162 l-364 -2 7 -33 c10 -45 70 -228 102 -309 l26 -68 719 0
718 0 0 208 0 207 -423 0 c-232 0 -585 -1 -785 -3z"/>
<path d="M10581 5118 c-33 -77 -154 -272 -198 -319 -24 -25 -43 -49 -43 -52 0
-3 135 -6 301 -6 281 -1 300 0 296 17 -3 9 -11 42 -17 72 -7 30 -28 114 -47
187 -30 109 -39 132 -57 137 -11 3 -65 6 -119 6 l-98 0 -18 -42z"/>
<path d="M11744 5118 c4 -24 23 -116 43 -205 l36 -161 121 -4 c67 -2 122 -3
124 -2 14 7 95 391 86 406 -3 5 -98 8 -210 8 l-206 0 6 -42z"/>
<path d="M13050 5138 c-1 -13 -22 -107 -48 -210 l-48 -188 483 0 c380 0 483 3
483 13 0 22 -88 389 -95 395 -4 4 -180 8 -391 10 l-384 3 0 -23z"/>
<path d="M14715 5133 c31 -171 75 -377 82 -382 4 -3 60 -5 124 -3 l116 3 13
72 c7 40 25 125 41 190 16 65 29 125 29 133 0 12 -33 14 -205 14 l-204 0 4
-27z"/>
<path d="M17639 5134 c-15 -41 -129 -385 -129 -392 0 -3 599 3 638 8 2 0 -12
19 -31 43 -63 77 -207 324 -207 355 0 9 -37 12 -130 12 l-130 0 -11 -26z"/>
<path d="M15976 5038 c-16 -47 -76 -272 -76 -290 0 -3 49 -5 110 -5 60 1 110
4 110 6 0 11 -116 341 -120 341 -3 0 -14 -24 -24 -52z"/>
<path d="M6504 4048 c3 -50 6 -142 6 -205 l0 -113 2356 0 c2240 0 2356 1 2349
18 -7 17 -68 189 -112 320 l-25 72 -2290 0 -2291 0 7 -92z"/>
<path d="M12835 4113 c-6 -27 -113 -337 -130 -377 -8 -19 -3 -19 160 -13 92 4
424 7 738 7 538 0 569 1 562 18 -9 21 -68 208 -99 312 l-22 75 -602 3 -602 2
-5 -27z"/>
<path d="M15767 4133 c-3 -5 -33 -93 -67 -198 -35 -104 -64 -194 -66 -200 -3
-7 734 -11 2196 -13 l2200 -2 0 210 0 210 -2129 0 c-1172 0 -2132 -3 -2134 -7z"/>
<path d="M16875 2210 c-105 -12 -160 -27 -240 -64 -240 -111 -431 -323 -497
-551 -20 -70 -23 -102 -23 -260 0 -193 7 -239 56 -357 81 -196 268 -377 486
-468 232 -98 608 -100 841 -5 95 38 238 131 302 195 158 158 240 340 256 567
21 318 -102 583 -361 780 -78 60 -221 127 -315 148 -87 19 -393 29 -505 15z
m344 -365 c92 -22 176 -70 252 -145 114 -112 154 -219 147 -396 -4 -109 -6
-116 -46 -198 -73 -147 -204 -254 -350 -285 -78 -16 -239 -14 -303 5 -147 43
-261 138 -328 276 -65 131 -76 228 -41 364 47 183 188 326 370 373 91 24 212
26 299 6z"/>
<path d="M1612 1343 l3 -868 208 -3 207 -2 0 107 c0 192 12 838 15 841 2 2 24
-27 48 -65 109 -168 250 -389 328 -513 124 -200 116 -193 235 -198 l99 -4 80
126 c123 194 447 696 449 696 1 0 0 -223 -2 -495 l-2 -495 200 0 201 0 -3 870
-3 870 -184 -2 c-151 -3 -185 -6 -192 -18 -62 -116 -191 -329 -307 -510 -185
-288 -244 -379 -296 -462 l-42 -68 -95 158 c-83 136 -164 264 -478 757 -32 50
-65 102 -75 118 l-16 27 -191 0 -190 0 3 -867z"/>
<path d="M4095 2198 c-3 -7 -4 -398 -3 -868 l3 -855 708 -3 707 -2 -2 167 -3
168 -490 2 -490 2 0 178 c0 151 2 178 15 179 8 1 198 2 423 2 l407 2 0 168 0
169 -367 7 c-203 4 -394 4 -425 0 l-58 -7 0 172 0 171 470 0 470 0 0 180 0
180 -680 0 c-535 0 -682 -3 -685 -12z"/>
<path d="M5648 2030 l-3 -180 285 0 285 0 -3 -690 -4 -690 221 0 221 0 -2 690
-3 690 276 0 276 0 6 113 c4 61 7 142 7 180 l0 67 -780 0 -779 0 -3 -180z"/>
<path d="M7920 2204 c-9 -3 -21 -17 -27 -32 -32 -78 -474 -1050 -548 -1207
-32 -66 -97 -204 -146 -308 l-88 -187 227 2 227 3 39 80 c21 44 59 123 82 175
l44 95 411 0 412 0 71 -165 c39 -91 75 -171 79 -177 6 -10 65 -13 237 -13
l229 0 -51 107 c-27 60 -83 178 -123 263 -69 146 -195 424 -228 500 -40 97
-242 538 -254 557 -8 12 -41 84 -73 160 l-59 138 -83 7 c-92 7 -354 8 -378 2z
m335 -679 c59 -143 120 -286 136 -317 l29 -58 -264 0 c-145 0 -271 3 -279 6
-12 4 -8 19 20 77 29 60 114 252 225 510 12 26 22 46 24 45 1 -2 51 -120 109
-263z"/>
<path d="M9368 2204 c-5 -4 -8 -396 -8 -871 l0 -864 608 4 c589 3 609 4 686
25 97 27 186 76 245 134 115 113 155 346 84 496 -34 73 -128 172 -192 202
l-50 23 42 27 c56 35 104 92 136 160 23 49 26 67 26 170 0 113 -1 118 -37 190
-63 127 -132 193 -259 245 -129 53 -162 56 -739 62 -294 3 -538 2 -542 -3z
m1067 -379 c50 -25 64 -38 84 -78 41 -84 4 -161 -101 -208 -51 -23 -62 -24
-345 -27 l-293 -3 0 176 0 176 298 -3 297 -3 60 -30z m-13 -669 c125 -27 169
-69 176 -165 4 -65 -18 -109 -70 -141 -61 -37 -130 -44 -445 -44 l-303 -1 0
183 0 182 288 0 c208 0 305 -4 354 -14z"/>
<path d="M13033 2203 l-133 -4 0 -117 c-2 -420 1 -1607 4 -1609 1 -1 313 -3
692 -3 l689 -1 3 171 2 170 -485 0 -485 0 0 180 0 180 413 0 412 0 0 175 0
175 -412 0 -413 0 0 170 0 170 460 -3 460 -2 0 178 0 177 -537 -2 c-296 -1
-598 -4 -670 -5z"/>
<path d="M11319 2183 c-2 -10 -3 -399 -1 -865 l2 -848 665 0 665 0 0 173 0
172 -448 4 c-246 2 -448 4 -450 6 -1 1 -2 311 -2 689 l-1 686 -213 0 c-195 0
-214 -1 -217 -17z"/>
<path d="M14414 2163 c3 -21 6 -100 6 -175 l0 -138 290 0 291 0 -3 -690 -3
-690 213 0 212 0 0 690 0 690 290 0 290 0 0 159 c0 88 3 166 6 175 6 15 -69
16 -796 16 l-803 0 7 -37z"/>
<path d="M18350 1335 l0 -865 216 0 217 0 -3 323 c-2 177 -3 405 -2 505 l2
184 43 -51 c226 -268 331 -390 513 -596 117 -132 239 -268 271 -302 l59 -63
182 0 182 0 0 859 0 859 -22 6 c-13 3 -109 6 -214 6 l-191 0 -7 -42 c-4 -22
-4 -255 0 -516 6 -364 4 -473 -5 -468 -6 4 -67 73 -135 154 -267 317 -426 504
-536 633 -64 74 -136 158 -160 187 l-43 52 -184 0 -183 0 0 -865z"/>
</g>
</svg>
