<?xml version="1.0" standalone="no"?>
<!DOCTYPE svg PUBLIC "-//W3C//DTD SVG 20010904//EN"
 "http://www.w3.org/TR/2001/REC-SVG-20010904/DTD/svg10.dtd">
<svg version="1.0" xmlns="http://www.w3.org/2000/svg"
 width="2214.000000pt" height="896.000000pt" viewBox="0 0 2214.000000 896.000000"
 preserveAspectRatio="xMidYMid meet">

<g transform="translate(0.000000,896.000000) scale(0.100000,-0.100000)"
fill="#000000" stroke="none">
<path d="M0 4480 l0 -4480 11070 0 11070 0 0 4480 0 4480 -11070 0 -11070 0 0
-4480z m16235 3061 c114 -55 194 -149 276 -327 131 -283 227 -667 479 -1904
115 -567 185 -891 236 -1092 24 -98 125 -394 162 -478 24 -56 80 -107 126
-116 43 -8 101 22 133 69 22 33 94 174 133 262 75 166 213 431 253 481 76 97
177 163 301 199 80 23 227 17 315 -14 103 -36 166 -84 334 -252 161 -161 213
-204 280 -233 85 -35 145 -38 602 -26 497 13 501 12 570 -51 101 -93 69 -245
-63 -296 -43 -17 -89 -18 -587 -18 -534 0 -541 0 -620 23 -169 49 -261 120
-489 375 -87 98 -133 127 -201 127 -58 0 -90 -17 -142 -73 -51 -55 -69 -91
-198 -384 -130 -294 -172 -368 -257 -448 -252 -239 -609 -182 -787 124 -135
232 -266 695 -411 1451 -23 118 -66 337 -97 485 -30 149 -76 376 -103 505
-159 782 -259 1119 -355 1210 l-23 21 -25 -33 c-83 -109 -170 -422 -301 -1083
-94 -475 -121 -625 -171 -945 -24 -157 -62 -391 -83 -520 -22 -129 -55 -323
-72 -430 -94 -586 -227 -1246 -337 -1675 -48 -190 -125 -411 -181 -520 -53
-104 -139 -198 -214 -234 -141 -67 -320 -45 -437 55 -143 123 -271 432 -410
989 -58 234 -181 778 -252 1120 -147 704 -273 1202 -336 1330 -53 107 -111
153 -181 141 -43 -7 -100 -59 -136 -126 -14 -27 -82 -216 -150 -422 -186 -562
-257 -710 -411 -864 -122 -122 -223 -164 -435 -184 -62 -5 -1061 -10 -2455
-11 l-2351 -3 -48 25 c-27 13 -60 39 -75 58 -22 29 -26 45 -26 100 0 58 4 70
30 104 17 20 48 46 71 57 40 20 69 20 2387 20 1663 0 2361 3 2399 11 154 32
283 137 357 292 42 88 100 240 151 402 96 298 229 616 308 732 46 68 137 155
191 182 103 53 217 64 322 31 165 -50 294 -191 396 -430 38 -90 113 -306 154
-450 30 -103 175 -738 259 -1135 145 -681 185 -853 285 -1200 71 -249 115
-357 164 -398 75 -63 116 -24 181 170 60 180 190 718 230 953 6 36 33 178 60
315 27 138 81 446 120 685 179 1105 225 1369 331 1895 36 183 159 682 192 785
96 293 200 472 325 557 74 50 106 61 187 62 47 1 73 -5 120 -28z m-13114 -462
c48 -16 96 -54 117 -92 16 -30 17 -166 22 -2332 4 -1671 2 -2313 -6 -2348 -19
-81 -81 -129 -169 -131 -70 -1 -135 38 -164 97 l-21 43 -2 2324 c-1 2151 0
2327 15 2357 20 37 60 68 107 81 48 14 62 14 101 1z m1050 -15 c31 -15 77 -68
89 -100 5 -12 10 -1063 11 -2336 2 -2550 7 -2354 -59 -2410 -68 -57 -158 -60
-229 -9 -81 58 -74 -180 -74 2430 0 2584 -6 2366 66 2411 67 41 134 46 196 14z
m-2037 2 c47 -19 94 -81 100 -130 3 -23 7 -1066 10 -2318 5 -2010 4 -2282 -10
-2320 -28 -80 -84 -118 -174 -118 -28 0 -64 7 -79 15 -34 17 -79 68 -93 104
-14 39 -12 4638 2 4677 15 38 48 73 85 90 39 17 117 18 159 0z m3042 -11 c28
-16 49 -39 63 -67 l20 -43 2 -2320 2 -2320 -20 -40 c-27 -51 -90 -88 -153 -89
-62 -1 -133 41 -161 95 l-20 41 0 2325 c0 2221 1 2326 18 2361 39 79 162 108
249 57z m1014 -1 c31 -17 56 -40 71 -67 l24 -42 3 -2314 2 -2314 -21 -44 c-69
-143 -295 -119 -339 36 -8 25 -10 761 -8 2342 l3 2305 27 42 c54 81 150 104
238 56z m8795 -179 c84 -14 149 -126 125 -215 -15 -55 -59 -103 -122 -131
l-53 -24 -3890 0 c-3776 0 -3891 1 -3925 19 -80 42 -120 99 -120 171 0 88 69
170 157 184 45 7 7786 4 7828 -4z m5361 0 c48 -14 100 -57 122 -100 33 -66 21
-163 -25 -208 -62 -58 23 -55 -1615 -58 -1109 -1 -1514 1 -1544 9 -95 27 -154
94 -154 174 0 81 52 156 130 187 16 6 566 10 1531 10 1298 1 1512 -1 1555 -14z
m-8326 -1392 c82 -36 125 -111 110 -191 -13 -72 -61 -122 -150 -159 -43 -17
-140 -18 -2435 -18 l-2390 0 -41 22 c-148 79 -153 262 -8 337 l39 21 2295 6
c2764 6 2523 8 2580 -18z m8370 -6 c95 -49 136 -182 81 -270 -12 -20 -44 -50
-69 -65 l-47 -27 -1345 0 c-740 0 -1371 4 -1402 8 -63 9 -137 52 -171 99 -12
16 -22 49 -25 82 -4 46 0 62 22 100 35 59 79 90 141 96 27 3 662 4 1410 2
l1360 -2 45 -23z m-7000 -2778 c87 -38 139 -113 140 -199 0 -62 -28 -110 -80
-137 l-43 -23 -3099 0 c-2121 0 -3113 3 -3146 11 -103 22 -156 87 -156 190 1
85 53 155 132 179 15 5 1418 6 3117 3 3046 -5 3091 -5 3135 -24z m6982 14 c15
-7 45 -28 67 -48 31 -28 43 -48 51 -88 21 -94 -19 -172 -109 -215 -34 -16
-187 -17 -2351 -19 -2566 -3 -2367 -8 -2429 62 -75 86 -36 235 77 291 36 18
107 19 1802 24 2641 7 2861 7 2892 -7z"/>
</g>
</svg>
