<?xml version="1.0" standalone="no"?>
<!DOCTYPE svg PUBLIC "-//W3C//DTD SVG 20010904//EN"
 "http://www.w3.org/TR/2001/REC-SVG-20010904/DTD/svg10.dtd">
<svg version="1.0" xmlns="http://www.w3.org/2000/svg"
 width="1488.000000pt" height="1312.000000pt" viewBox="0 0 1488.000000 1312.000000"
 preserveAspectRatio="xMidYMid meet">

<g transform="translate(0.000000,1312.000000) scale(0.100000,-0.100000)"
fill="#000000" stroke="none">
<path d="M6985 12029 c-854 -48 -1609 -253 -2335 -632 -539 -281 -984 -608
-1410 -1036 -302 -303 -526 -574 -734 -886 -311 -467 -505 -874 -669 -1400
-74 -237 -98 -328 -152 -584 -97 -458 -119 -666 -119 -1151 1 -370 14 -608 45
-815 136 -897 496 -1789 1009 -2500 424 -589 1017 -1151 1600 -1517 716 -449
1443 -712 2298 -832 283 -40 427 -49 752 -49 308 0 410 6 710 44 667 82 1260
258 1846 548 322 159 530 284 847 512 574 411 1179 1081 1559 1724 395 671
652 1461 735 2260 22 214 25 954 5 1160 -54 548 -142 928 -345 1490 -210 578
-537 1144 -921 1595 -45 52 -104 122 -131 155 -90 108 -387 405 -520 520 -655
565 -1383 963 -2167 1185 -174 50 -505 123 -673 149 -366 58 -855 81 -1230 60z
m963 -363 c811 -92 1620 -390 2300 -849 141 -95 454 -334 575 -439 118 -103
382 -365 491 -488 343 -386 581 -742 815 -1220 219 -446 404 -1044 475 -1535
58 -397 64 -1006 15 -1470 -83 -790 -386 -1610 -849 -2300 -186 -277 -371
-505 -600 -739 -293 -300 -582 -540 -933 -775 -834 -558 -1791 -854 -2837
-878 -799 -18 -1518 114 -2185 399 -683 293 -1222 661 -1753 1198 -355 358
-578 641 -812 1029 -132 220 -306 576 -397 811 -258 670 -388 1447 -353 2109
31 585 115 1038 290 1562 206 613 524 1173 949 1669 154 181 578 604 721 722
756 619 1627 1019 2510 1152 162 24 427 52 565 60 185 9 876 -3 1013 -18z"/>
<path d="M9670 7739 c-35 -14 -88 -67 -110 -109 -75 -145 -191 -745 -315
-1630 -47 -333 -140 -786 -182 -882 -9 -21 -22 -38 -30 -38 -18 0 -50 54 -69
119 -18 62 -103 436 -174 761 -126 582 -165 710 -246 799 -52 59 -106 85 -174
85 -68 0 -121 -26 -177 -87 -53 -58 -73 -97 -183 -369 -50 -122 -103 -239
-119 -258 -55 -69 31 -65 -1198 -61 l-1113 3 -35 -35 c-28 -28 -35 -43 -35
-75 0 -46 25 -84 68 -101 21 -9 303 -11 1153 -9 1269 4 1172 -2 1268 84 63 57
108 144 211 409 87 224 108 267 147 293 24 15 26 15 44 -6 38 -47 64 -142 154
-557 55 -254 166 -741 200 -883 54 -222 124 -316 248 -335 85 -13 189 49 236
142 61 118 114 393 266 1371 116 746 202 1150 245 1150 30 0 47 -63 200 -780
137 -640 167 -762 220 -875 68 -148 182 -209 315 -170 84 24 126 72 215 245
41 79 82 152 92 162 25 25 78 23 114 -4 17 -13 62 -57 102 -99 39 -41 95 -88
124 -105 l53 -29 269 -3 c149 -2 280 -1 293 3 28 7 63 60 63 95 0 32 -32 85
-62 102 -17 10 -82 13 -258 13 -277 0 -261 -5 -390 121 -105 103 -166 134
-261 134 -133 0 -219 -76 -322 -283 -93 -189 -130 -198 -186 -45 -36 96 -65
223 -176 768 -94 461 -158 721 -203 823 -26 59 -79 116 -127 138 -43 20 -115
24 -155 8z"/>
<path d="M4436 7570 c-15 -5 -37 -17 -47 -26 -18 -17 -19 -53 -19 -1221 0
-1325 -3 -1252 62 -1293 53 -33 119 -14 149 43 14 25 12 2433 -2 2459 -11 21
-67 49 -96 47 -10 0 -31 -5 -47 -9z"/>
<path d="M4963 7565 c-17 -7 -36 -22 -41 -32 -7 -13 -10 -434 -9 -1232 l2
-1213 33 -29 c26 -23 42 -29 78 -29 54 0 88 28 103 86 6 25 10 473 11 1213 1
1303 6 1207 -65 1237 -42 17 -71 17 -112 -1z"/>
<path d="M2769 7559 c-15 -6 -32 -22 -38 -37 -8 -19 -11 -362 -9 -1230 l3
-1204 37 -34 c51 -46 106 -48 149 -5 l29 29 0 1224 c0 673 -4 1229 -8 1236
-18 28 -111 40 -163 21z"/>
<path d="M3313 7554 l-33 -16 0 -1220 c0 -1345 -4 -1259 64 -1292 42 -20 59
-20 96 -1 65 33 60 -63 60 1281 0 1216 0 1221 -20 1239 -29 26 -124 31 -167 9z"/>
<path d="M3847 7540 l-26 -30 6 -1207 c6 -1325 1 -1233 66 -1274 44 -27 93
-19 130 21 l27 31 -2 1220 -3 1221 -28 24 c-23 19 -39 24 -87 24 -52 0 -61 -3
-83 -30z"/>
<path d="M5558 7464 c-73 -39 -75 -151 -4 -198 23 -15 170 -16 1830 -16 l1804
0 31 26 c63 52 45 149 -33 185 -39 18 -110 19 -1821 18 -1555 0 -1783 -2
-1807 -15z"/>
<path d="M10240 7462 c-49 -24 -76 -80 -61 -125 7 -19 23 -45 37 -58 l26 -24
748 -3 747 -2 32 29 c59 55 35 154 -45 187 -27 11 -162 14 -741 14 -654 0
-711 -1 -743 -18z"/>
<path d="M5544 6726 c-56 -56 -44 -135 26 -171 25 -13 177 -15 1166 -15 l1136
0 39 39 c42 42 47 66 24 115 -31 65 54 61 -1208 64 l-1149 2 -34 -34z"/>
<path d="M10368 6744 c-30 -16 -58 -61 -58 -94 0 -31 25 -75 54 -94 23 -14 90
-16 699 -16 l674 0 26 26 c14 14 29 38 32 54 7 34 -13 87 -45 115 -22 20 -38
20 -689 22 -575 2 -670 0 -693 -13z"/>
<path d="M6197 5352 c-678 -2 -641 2 -671 -73 -14 -34 -14 -44 -2 -72 7 -17
23 -41 36 -52 22 -20 36 -20 1477 -20 l1455 0 29 33 c23 26 29 42 29 78 0 63
-39 104 -102 105 -140 2 -1739 4 -2251 1z"/>
<path d="M9603 5351 c-52 -9 -80 -33 -94 -81 -13 -44 5 -89 48 -117 25 -17 93
-18 1104 -18 l1078 0 30 29 c26 25 31 37 31 78 0 39 -6 54 -29 80 l-29 33
-1049 1 c-576 1 -1067 -1 -1090 -5z"/>
</g>
</svg>
