<svg width="1400" height="900" viewBox="0 0 1400 900" fill="none" xmlns="http://www.w3.org/2000/svg">
  <rect width="1400" height="900" fill="#F6F3ED"/>
  <rect x="92" y="90" width="1216" height="720" rx="18" fill="#FBFAF6" stroke="#191919" stroke-opacity="0.09"/>
  <rect x="132" y="132" width="1136" height="636" rx="10" fill="#FFFFFF"/>
  <rect x="168" y="172" width="268" height="20" rx="10" fill="#1A1A1A" fill-opacity="0.1"/>
  <rect x="168" y="214" width="324" height="14" rx="7" fill="#1A1A1A" fill-opacity="0.08"/>
  <rect x="168" y="294" width="1064" height="60" rx="12" fill="#F6F3ED" stroke="#191919" stroke-opacity="0.08"/>
  <rect x="168" y="378" width="1064" height="60" rx="12" fill="#F6F3ED" stroke="#191919" stroke-opacity="0.08"/>
  <rect x="168" y="462" width="1064" height="60" rx="12" fill="#F6F3ED" stroke="#191919" stroke-opacity="0.08"/>
  <rect x="168" y="546" width="1064" height="60" rx="12" fill="#F6F3ED" stroke="#191919" stroke-opacity="0.08"/>
  <rect x="168" y="630" width="500" height="88" rx="12" fill="#F1EEE7"/>
  <rect x="698" y="630" width="534" height="88" rx="12" fill="#111111" fill-opacity="0.06"/>
  <rect x="740" y="658" width="232" height="14" rx="7" fill="#1A1A1A" fill-opacity="0.18"/>
  <rect x="740" y="684" width="188" height="12" rx="6" fill="#1A1A1A" fill-opacity="0.12"/>
  <circle cx="1102" cy="674" r="34" fill="#111111" fill-opacity="0.08"/>
  <path d="M1090 674H1114" stroke="#111111" stroke-opacity="0.48" stroke-width="8" stroke-linecap="round"/>
  <path d="M1102 662V686" stroke="#111111" stroke-opacity="0.48" stroke-width="8" stroke-linecap="round"/>
  <text x="168" y="760" fill="#111111" fill-opacity="0.52" font-family="Arial, sans-serif" font-size="26" letter-spacing="3">GIF PLACEHOLDER / RETROUVER ET RELIER LES FICHIERS DANS LIVE</text>
</svg>
